<?xml version="1.0" encoding="utf-8"?>
<!-- Generator: Adobe Illustrator 18.0.0, SVG Export Plug-In . SVG Version: 6.00 Build 0)  -->
<!DOCTYPE svg PUBLIC "-//W3C//DTD SVG 1.1//EN" "http://www.w3.org/Graphics/SVG/1.1/DTD/svg11.dtd">
<svg version="1.1" id="ex_x5F_logo2_xA0_Bild_1_" xmlns="http://www.w3.org/2000/svg" xmlns:xlink="http://www.w3.org/1999/xlink"
	 x="0px" y="0px" viewBox="0 0 805 686" enable-background="new 0 0 805 686" xml:space="preserve">
<g>
	<linearGradient id="SVGID_1_" gradientUnits="userSpaceOnUse" x1="432.7982" y1="-54.2121" x2="372.2412" y2="289.2238">
		<stop  offset="0" style="stop-color:#FFFFFF"/>
		<stop  offset="1" style="stop-color:#E3E3E2"/>
	</linearGradient>
	<path fill="url(#SVGID_1_)" d="M778.2,228H26.8c-11,0-19.8-8.9-19.8-19.8V26.8C7,15.9,15.9,7,26.8,7h751.4c11,0,19.8,8.9,19.8,19.8
		v181.3C798,219.1,789.2,228,778.2,228z"/>
	<path fill="#A6A9B2" d="M778.2,7c11,0,19.8,8.9,19.8,19.8v181.3c0,11-8.9,19.8-19.8,19.8H26.8c-11,0-19.8-8.9-19.8-19.8V26.8
		C7,15.9,15.9,7,26.8,7H778.2 M778.2,0H26.8C12,0,0,12,0,26.8v181.3C0,223,12,235,26.8,235h751.4c14.8,0,26.8-12,26.8-26.8V26.8
		C805,12,793,0,778.2,0L778.2,0z"/>
	<g>
		<path d="M357.7,686H58.4V271.4h298.8v78.4h-194v73.3h178.9v79.1H163.4v105.5h194.3V686z"/>
		<path d="M467.6,348.6c-4.4,2-8.5,3.6-12.5,4.7c-3.9,1.1-8.1,1.7-12.6,1.7c-5.6,0-10.8-0.8-15.5-2.4c-4.7-1.6-8.7-4-12.1-7.2
			c-3.4-3.2-6-7.3-7.9-12.2c-1.9-4.9-2.8-10.6-2.8-17.2c0-12.2,3.5-21.8,10.5-28.8c7-7,16.3-10.4,27.8-10.4c4.5,0,8.9,0.6,13.2,1.8
			c4.3,1.2,8.3,2.7,11.9,4.4v14h-0.7c-4-3-8.1-5.3-12.4-6.9c-4.3-1.6-8.4-2.4-12.5-2.4c-7.5,0-13.3,2.4-17.7,7.2
			c-4.3,4.8-6.5,11.8-6.5,21.1c0,9,2.1,15.9,6.3,20.8c4.2,4.8,10.2,7.3,17.8,7.3c2.7,0,5.4-0.3,8.1-1c2.8-0.7,5.2-1.5,7.4-2.6
			c1.9-0.9,3.7-1.9,5.4-3s3-2,4-2.7h0.7V348.6z"/>
		<path d="M497,353.3h-13.2V249.1H497V353.3z"/>
		<path d="M583,353.3H570v-8c-1.2,0.8-2.7,1.8-4.7,3.2c-2,1.4-3.9,2.4-5.8,3.2c-2.2,1-4.7,1.9-7.6,2.6c-2.8,0.7-6.2,1-10,1
			c-7,0-13-2.2-17.9-6.7c-4.9-4.5-7.3-10.2-7.3-17.1c0-5.7,1.3-10.3,3.8-13.8c2.5-3.5,6.2-6.3,10.9-8.3c4.8-2,10.5-3.4,17.1-4.1
			c6.7-0.7,13.8-1.2,21.5-1.6V302c0-2.9-0.5-5.2-1.6-7.1c-1-1.9-2.6-3.3-4.5-4.4c-1.9-1-4.1-1.7-6.7-2.1c-2.6-0.4-5.3-0.5-8.2-0.5
			c-3.5,0-7.3,0.4-11.5,1.3c-4.2,0.9-8.6,2.1-13.2,3.8h-0.7v-12.8c2.6-0.7,6.3-1.4,11.1-2.2c4.8-0.8,9.6-1.2,14.3-1.2
			c5.5,0,10.3,0.4,14.4,1.3c4.1,0.9,7.6,2.4,10.6,4.5c2.9,2.1,5.2,4.7,6.7,8c1.5,3.3,2.3,7.3,2.3,12.1V353.3z M570,334.9v-20.8
			c-4,0.2-8.7,0.6-14.2,1c-5.4,0.4-9.7,1.1-12.9,1.9c-3.8,1-6.8,2.6-9.2,4.8c-2.3,2.2-3.5,5.1-3.5,8.9c0,4.3,1.4,7.5,4.1,9.7
			c2.7,2.2,6.8,3.2,12.4,3.2c4.6,0,8.8-0.9,12.7-2.6C563.2,339.4,566.7,337.3,570,334.9z"/>
		<path d="M663.5,331.8c0,6.8-2.9,12.4-8.8,16.8c-5.9,4.4-14,6.6-24.2,6.6c-5.8,0-11.1-0.7-15.9-2c-4.8-1.3-8.9-2.8-12.1-4.3v-14.1
			h0.7c4.1,3,8.8,5.4,13.9,7.1c5.1,1.8,10,2.6,14.6,2.6c5.8,0,10.3-0.9,13.6-2.7c3.3-1.8,4.9-4.6,4.9-8.4c0-2.9-0.9-5.2-2.7-6.7
			c-1.8-1.5-5.2-2.8-10.2-3.9c-1.9-0.4-4.3-0.9-7.3-1.4c-3-0.5-5.7-1.1-8.2-1.7c-6.9-1.7-11.7-4.3-14.6-7.7
			c-2.9-3.4-4.3-7.5-4.3-12.4c0-3.1,0.7-6,2-8.7s3.3-5.2,6.1-7.3c2.6-2.1,5.9-3.8,10-5c4-1.2,8.5-1.8,13.5-1.8
			c4.7,0,9.4,0.5,14.2,1.6c4.8,1.1,8.8,2.4,11.9,4v13.5h-0.7c-3.4-2.4-7.4-4.4-12.2-6c-4.8-1.6-9.5-2.4-14.1-2.4
			c-4.8,0-8.9,0.9-12.2,2.6c-3.3,1.8-5,4.4-5,7.9c0,3.1,1,5.4,3,7c2,1.6,5.1,2.8,9.5,3.8c2.4,0.5,5.1,1.1,8.1,1.6
			c3,0.5,5.5,1,7.5,1.5c6.1,1.3,10.8,3.6,14.1,6.9C661.8,321.9,663.5,326.3,663.5,331.8z"/>
		<path d="M737.4,331.8c0,6.8-2.9,12.4-8.8,16.8c-5.9,4.4-14,6.6-24.2,6.6c-5.8,0-11.1-0.7-15.9-2c-4.8-1.3-8.9-2.8-12.1-4.3v-14.1
			h0.7c4.1,3,8.8,5.4,13.9,7.1c5.1,1.8,10,2.6,14.6,2.6c5.8,0,10.3-0.9,13.6-2.7c3.3-1.8,4.9-4.6,4.9-8.4c0-2.9-0.9-5.2-2.7-6.7
			c-1.8-1.5-5.2-2.8-10.2-3.9c-1.9-0.4-4.3-0.9-7.3-1.4c-3-0.5-5.7-1.1-8.2-1.7c-6.9-1.7-11.7-4.3-14.6-7.7
			c-2.9-3.4-4.3-7.5-4.3-12.4c0-3.1,0.7-6,2-8.7s3.3-5.2,6.1-7.3c2.6-2.1,5.9-3.8,10-5c4-1.2,8.5-1.8,13.5-1.8
			c4.7,0,9.4,0.5,14.2,1.6c4.8,1.1,8.8,2.4,11.9,4v13.5h-0.7c-3.4-2.4-7.4-4.4-12.2-6c-4.8-1.6-9.5-2.4-14.1-2.4
			c-4.8,0-8.9,0.9-12.2,2.6c-3.3,1.8-5,4.4-5,7.9c0,3.1,1,5.4,3,7c2,1.6,5.1,2.8,9.5,3.8c2.4,0.5,5.1,1.1,8.1,1.6
			c3,0.5,5.5,1,7.5,1.5c6.1,1.3,10.8,3.6,14.1,6.9C735.7,321.9,737.4,326.3,737.4,331.8z"/>
		<polygon points="746.7,371 656.8,371 587.1,471.3 518.1,371 400.9,371 526.1,525.1 402,686 512,686 587.1,586.6 661.8,686 
			746.7,686 746.7,653.1 647.5,525.1 746.7,404.1 		"/>
	</g>
	<linearGradient id="SVGID_2_" gradientUnits="userSpaceOnUse" x1="405.1851" y1="41.6793" x2="399.8543" y2="194.3325">
		<stop  offset="0.1981" style="stop-color:#FFFFFF"/>
		<stop  offset="0.2483" style="stop-color:#FEFAF4"/>
		<stop  offset="0.3353" style="stop-color:#FDECD8"/>
		<stop  offset="0.4487" style="stop-color:#FAD6AA"/>
		<stop  offset="0.5841" style="stop-color:#F6B86B"/>
		<stop  offset="0.7365" style="stop-color:#F0911B"/>
		<stop  offset="0.7488" style="stop-color:#F08E14"/>
	</linearGradient>
	<rect x="56.5" y="53.7" fill="url(#SVGID_2_)" width="692" height="128.7"/>
	<path fill="#F08E14" d="M742.5,59.7v116.7h-680V59.7H742.5 M748.5,53.7h-692v128.7h692V53.7L748.5,53.7z"/>
	<g>
		<rect x="509.2" y="53.7" fill="#FFFFFF" width="239.3" height="128.7"/>
	</g>
	<rect x="230.2" y="47.7" fill="#222221" width="6" height="140.7"/>
	<path fill="#F08E14" d="M236.2,53.7v128.7h-6V53.7H236.2 M242.2,47.7h-6h-6h-6v6v128.7v6h6h6h6v-6V53.7V47.7L242.2,47.7z"/>
	<rect x="402.7" y="47.7" width="6" height="140.7"/>
	<path fill="#F08E14" d="M408.7,53.7v128.7h-6V53.7H408.7 M414.7,47.7h-6h-6h-6v6v128.7v6h6h6h6v-6V53.7V47.7L414.7,47.7z"/>
	<rect x="575.6" y="53.7" width="6" height="128.7"/>
	<path fill="#C5C5C5" d="M581.6,47.7v140.7h-6V47.7H581.6 M587.6,47.7h-6h-6h-6v6v128.7v6h6h6h6v-6V53.7V47.7L587.6,47.7z"/>
	<path d="M748.5,53.7v128.7h-692V53.7H748.5 M761.5,40.7h-13h-692h-13v13v128.7v13h13h692h13v-13V53.7V40.7L761.5,40.7z"/>
</g>
</svg>
